<svg width="68" height="32" viewBox="0 0 68 32" fill="none" xmlns="http://www.w3.org/2000/svg">
<path d="M14.458 25.6934C11.2928 25.6934 8.86421 24.8432 7.23302 23.1628C5.60182 21.4823 4.80444 18.9956 4.80444 15.7585C4.80444 12.5214 5.61397 10.0307 7.23302 8.35822C8.85206 6.68578 11.2806 5.82361 14.458 5.82361C15.4073 5.83426 16.3545 5.91565 17.2913 6.06709C18.2353 6.20824 19.1674 6.41769 20.0802 6.69376C20.1641 6.71878 20.2359 6.77313 20.2821 6.84661C20.3283 6.92009 20.3457 7.00766 20.3311 7.09291L20.0073 9.53971C19.9995 9.59913 19.977 9.65574 19.9417 9.70449C19.9064 9.75324 19.8594 9.79262 19.8049 9.81912C19.7557 9.84276 19.7018 9.85504 19.6471 9.85504C19.5815 9.85386 19.5174 9.83598 19.4609 9.80315C18.7155 9.36985 17.9114 9.04327 17.0728 8.83321C16.2233 8.61225 15.3487 8.49957 14.4702 8.49793C12.329 8.49793 10.7706 9.05674 9.83968 10.1624C8.90873 11.268 8.41492 13.176 8.41492 15.7505C8.41492 18.325 8.89254 20.237 9.83968 21.3586C10.7868 22.4802 12.329 23.0271 14.4702 23.0271C15.3485 23.0237 16.223 22.911 17.0728 22.6918C17.9122 22.4821 18.7165 22.1541 19.4609 21.7178C19.5177 21.6862 19.5818 21.6697 19.6471 21.6699C19.7018 21.6699 19.7557 21.6822 19.8049 21.7059C19.8595 21.7311 19.9068 21.7696 19.9422 21.8178C19.9776 21.866 20 21.9222 20.0073 21.9813L20.3311 24.484C20.3444 24.5702 20.3255 24.6582 20.2778 24.7316C20.2301 24.8051 20.157 24.8589 20.0721 24.8831C19.1412 25.1368 18.1948 25.3315 17.2387 25.4659C16.3184 25.6063 15.3892 25.6823 14.458 25.6934V25.6934Z" fill="#E01C40"/>
<path d="M37.9747 25.4259C37.8781 25.4259 37.7854 25.3881 37.7171 25.3207C37.6488 25.2534 37.6104 25.162 37.6104 25.0667V14.2896C37.6104 13.9663 37.4445 13.3636 36.6592 12.3218C36.6248 12.2768 36.6017 12.2244 36.5918 12.1689C36.582 12.1134 36.5857 12.0563 36.6026 12.0025L36.7119 11.6552C36.734 11.5815 36.78 11.517 36.8429 11.4716C36.9058 11.4262 36.982 11.4023 37.06 11.4037H40.0714C40.168 11.4037 40.2607 11.4416 40.329 11.509C40.3973 11.5763 40.4357 11.6677 40.4357 11.763V12.5892C40.8249 12.2868 41.2455 12.0259 41.6904 11.8109C42.4646 11.4454 43.3134 11.2597 44.1716 11.268C44.6274 11.267 45.0823 11.3044 45.5316 11.3798C45.6233 11.3964 45.7051 11.4471 45.76 11.5213C45.815 11.5956 45.839 11.6878 45.8271 11.7789L45.6409 14.094C45.6368 14.1421 45.6229 14.1888 45.5999 14.2313C45.577 14.2738 45.5455 14.3113 45.5073 14.3415C45.4433 14.3962 45.3613 14.426 45.2766 14.4253H45.2361C44.5964 14.3547 43.9532 14.3201 43.3095 14.3215C42.4478 14.3075 41.5888 14.4178 40.7595 14.6488V25.0667C40.7595 25.1139 40.7501 25.1606 40.7317 25.2042C40.7134 25.2478 40.6866 25.2874 40.6528 25.3207C40.619 25.3541 40.5788 25.3805 40.5346 25.3986C40.4904 25.4167 40.443 25.4259 40.3952 25.4259H37.9747Z" fill="#E01C40"/>
<path d="M53.6473 25.6415C51.2835 25.6415 49.4296 25.0787 48.1465 23.969C46.8635 22.8594 46.1875 21.0073 46.1875 18.5007C46.1875 15.994 46.8311 14.082 48.098 12.9125C49.4256 11.7307 51.1677 11.1051 52.9551 11.1682C54.9789 11.1682 56.5535 11.735 57.5937 12.8527C58.6339 13.9703 59.1439 15.7705 59.1439 18.2292C59.1458 18.5968 59.1174 18.9639 59.0589 19.3269C59.0446 19.4108 59.0005 19.4869 58.9345 19.5417C58.8685 19.5966 58.785 19.6265 58.6987 19.6263H49.5025C49.7211 21.8974 51.0973 23.0031 53.6999 23.0031C54.517 22.9997 55.3313 22.9087 56.1285 22.7317C56.8206 22.5932 57.4981 22.3914 58.1523 22.1289C58.1981 22.1085 58.2477 22.0976 58.298 22.097C58.3687 22.0971 58.4377 22.118 58.4963 22.1569C58.5465 22.1898 58.5878 22.2343 58.6167 22.2864C58.6456 22.3385 58.6612 22.3968 58.6623 22.4562V24.7474C58.6623 24.8267 58.6357 24.9037 58.5866 24.9665C58.5375 25.0293 58.4688 25.0744 58.3911 25.0946C57.6833 25.2757 56.9639 25.4091 56.2377 25.4938C55.3782 25.596 54.513 25.6453 53.6473 25.6415ZM55.8573 17.1635C55.8249 15.8942 55.5901 14.9761 55.1692 14.4293C54.7482 13.8825 54.0116 13.5711 53.0239 13.5711C52.5798 13.5396 52.134 13.6008 51.7155 13.7507C51.297 13.9006 50.9153 14.136 50.5954 14.4413C50.0813 14.9801 49.7535 15.8942 49.6239 17.1595L55.8573 17.1635Z" fill="#E01C40"/>
<path d="M36.0966 17.7223C36.1492 19.4507 35.3437 21.1351 33.6963 22.7796L33.2308 22.3206L32.3808 21.4664L32.0287 21.1191C32.23 20.9156 32.418 20.6997 32.5913 20.4725C32.8484 20.1537 33.0387 19.7877 33.1513 19.3957C33.2639 19.0038 33.2964 18.5938 33.247 18.1893C33.2152 17.9656 33.1582 17.746 33.077 17.5347C33.0264 17.3987 32.9683 17.2654 32.903 17.1356C32.4216 16.2523 31.7968 15.4527 31.0532 14.7686L33.3563 12.4974C35.0725 14.1872 35.9832 15.8743 36.0885 17.5587C36.0925 17.6026 36.0966 17.6625 36.0966 17.7223Z" fill="#317AA4"/>
<path d="M33.3563 12.4775L32.9151 12.9126L32.5711 13.2478L32.1987 13.6191L31.0532 14.7686C29.7539 13.4913 28.5963 12.7729 27.5561 12.6371C26.5159 12.5014 25.5323 12.8886 24.5892 13.8346L24.3423 13.5951L24.237 13.4913L22.9094 12.1342C24.5905 10.503 26.2986 9.7047 28.0337 9.7393H28.3575C30.0089 9.91093 31.6685 10.813 33.3563 12.4775Z" fill="#469443"/>
<path d="M25.3988 20.3248L25.1316 20.5883L24.2857 21.4345L23.9133 21.8057L23.1038 22.604C21.3997 20.9195 20.489 19.2311 20.3919 17.5387C20.3919 17.4709 20.3919 17.403 20.3919 17.3312C20.3622 15.5696 21.1933 13.8546 22.8852 12.1861L22.9378 12.1342L23.4074 12.5972L24.3788 13.5552L24.6257 13.7947L24.5771 13.8426C24.3519 14.0595 24.1485 14.2974 23.97 14.5531C23.4627 15.213 23.2375 16.0426 23.3426 16.8642C23.3646 17.0928 23.4094 17.3187 23.4762 17.5387C23.5053 17.6269 23.539 17.7135 23.5774 17.7982C24.0078 18.7516 24.6271 19.6106 25.3988 20.3248V20.3248Z" fill="#E01C40"/>
<path d="M33.6964 22.7796L33.6519 22.8235C31.9519 24.4999 30.2155 25.3182 28.4264 25.2823H28.3576C26.6009 25.2304 24.8362 24.3363 23.0957 22.608L25.1397 20.5922L25.4069 20.3288C26.6859 21.5901 27.8597 22.2886 28.9162 22.4204C29.9726 22.5521 30.9845 22.133 31.9762 21.155L32.0247 21.1151L32.3769 21.4624L33.2431 22.3166L33.6964 22.7796Z" fill="#FDB827"/>
</svg>
